# xmcd
#
# Track frame offsets:
#	150
#	11640
#	30705
#	42102
#	63685
#	76930
#	88882
#	108975
#	121545
#	137607
#	155357
#	170157
#	183527
#	203602
#
# Disc length: 2897 seconds
#
# Revision: 1
# Processed by: cddbd v1.4PL0 Copyright (c) Steve Scherf et al.
# Submitted via: MusicWizard 6.0.2
#
DISCID=b30b4f0e
DTITLE=Jonny Hill - Teddybär
DYEAR=1900
DGENRE=Country
TTITLE0=Lichter Auf Den Hügeln
TTITLE1=Kinder, Alte Hunde Und Junger, Herber Wein
TTITLE2=Ich Fahre Meine Tour
TTITLE3=Ruf Teddybär 1-4
TTITLE4=Nur Allzugern
TTITLE5=Mehr Hinterm Lenkrad Als Zu Hause
TTITLE6=Der Alte Mann
TTITLE7=500 Meilen Von Zu Haus
TTITLE8=Lucille
TTITLE9=Rosen Für Mama
TTITLE10=Das Fremde Gesicht
TTITLE11=Mutter Meiner Kinder
TTITLE12=Hallo Teddybär
TTITLE13=Ich Danke Dir
EXTD=
EXTT0=
EXTT1=
EXTT2=
EXTT3=
EXTT4=
EXTT5=
EXTT6=
EXTT7=
EXTT8=
EXTT9=
EXTT10=
EXTT11=
EXTT12=
EXTT13=
PLAYORDER=
